<?xml version="1.0" encoding="UTF-8" standalone="no"?>
<!DOCTYPE svg PUBLIC "-//W3C//DTD SVG 1.1//EN"
 "http://www.w3.org/Graphics/SVG/1.1/DTD/svg11.dtd">
<!-- Generated by graphviz version 2.38.0 (20140413.2041)
 -->
<!-- Title: G Pages: 1 -->
<svg width="1105pt" height="404pt"
 viewBox="0.00 0.00 1105.29 404.00" xmlns="http://www.w3.org/2000/svg" xmlns:xlink="http://www.w3.org/1999/xlink">
<g id="graph0" class="graph" transform="scale(1 1) rotate(0) translate(4 400)">
<title>G</title>
<polygon fill="white" stroke="none" points="-4,4 -4,-400 1101.29,-400 1101.29,4 -4,4"/>
<!-- JSONStream -->
<g id="node1" class="node"><title>JSONStream</title>
<ellipse fill="none" stroke="black" cx="96.496" cy="-306" rx="57.6901" ry="18"/>
<text text-anchor="middle" x="96.496" y="-302.3" font-family="Times New Roman,serif" font-size="14.00">JSONStream</text>
</g>
<!-- jsonparse -->
<g id="node2" class="node"><title>jsonparse</title>
<ellipse fill="none" stroke="black" cx="45.496" cy="-234" rx="45.4919" ry="18"/>
<text text-anchor="middle" x="45.496" y="-230.3" font-family="Times New Roman,serif" font-size="14.00">jsonparse</text>
</g>
<!-- JSONStream&#45;&gt;jsonparse -->
<g id="edge1" class="edge"><title>JSONStream&#45;&gt;jsonparse</title>
<path fill="none" stroke="black" d="M84.1503,-288.055C78.0111,-279.629 70.4712,-269.28 63.6857,-259.966"/>
<polygon fill="black" stroke="black" points="66.4454,-257.81 57.7279,-251.789 60.7877,-261.932 66.4454,-257.81"/>
</g>
<!-- through -->
<g id="node3" class="node"><title>through</title>
<ellipse fill="none" stroke="black" cx="147.496" cy="-234" rx="38.1938" ry="18"/>
<text text-anchor="middle" x="147.496" y="-230.3" font-family="Times New Roman,serif" font-size="14.00">through</text>
</g>
<!-- JSONStream&#45;&gt;through -->
<g id="edge2" class="edge"><title>JSONStream&#45;&gt;through</title>
<path fill="none" stroke="black" d="M108.842,-288.055C115.071,-279.505 122.743,-268.975 129.605,-259.556"/>
<polygon fill="black" stroke="black" points="132.555,-261.45 135.615,-251.307 126.898,-257.328 132.555,-261.45"/>
</g>
<!-- assert&#45;plus -->
<g id="node4" class="node"><title>assert&#45;plus</title>
<ellipse fill="none" stroke="black" cx="222.496" cy="-306" rx="50.0912" ry="18"/>
<text text-anchor="middle" x="222.496" y="-302.3" font-family="Times New Roman,serif" font-size="14.00">assert&#45;plus</text>
</g>
<!-- big&#45;json -->
<g id="node5" class="node"><title>big&#45;json</title>
<ellipse fill="none" stroke="black" cx="418.496" cy="-378" rx="40.0939" ry="18"/>
<text text-anchor="middle" x="418.496" y="-374.3" font-family="Times New Roman,serif" font-size="14.00">big&#45;json</text>
</g>
<!-- big&#45;json&#45;&gt;JSONStream -->
<g id="edge3" class="edge"><title>big&#45;json&#45;&gt;JSONStream</title>
<path fill="none" stroke="black" d="M382.071,-369.948C332.489,-360.231 241.041,-341.888 163.496,-324 158.844,-322.927 154.02,-321.777 149.19,-320.6"/>
<polygon fill="black" stroke="black" points="149.867,-317.162 139.319,-318.161 148.188,-323.957 149.867,-317.162"/>
</g>
<!-- big&#45;json&#45;&gt;assert&#45;plus -->
<g id="edge4" class="edge"><title>big&#45;json&#45;&gt;assert&#45;plus</title>
<path fill="none" stroke="black" d="M387.871,-366.063C355.256,-354.414 303.343,-335.874 266.386,-322.675"/>
<polygon fill="black" stroke="black" points="267.455,-319.341 256.861,-319.273 265.101,-325.933 267.455,-319.341"/>
</g>
<!-- into&#45;stream -->
<g id="node6" class="node"><title>into&#45;stream</title>
<ellipse fill="none" stroke="black" cx="341.496" cy="-306" rx="51.1914" ry="18"/>
<text text-anchor="middle" x="341.496" y="-302.3" font-family="Times New Roman,serif" font-size="14.00">into&#45;stream</text>
</g>
<!-- big&#45;json&#45;&gt;into&#45;stream -->
<g id="edge5" class="edge"><title>big&#45;json&#45;&gt;into&#45;stream</title>
<path fill="none" stroke="black" d="M401.407,-361.465C391.183,-352.17 378.006,-340.191 366.614,-329.835"/>
<polygon fill="black" stroke="black" points="368.825,-327.114 359.071,-322.977 364.116,-332.294 368.825,-327.114"/>
</g>
<!-- json&#45;stream&#45;stringify -->
<g id="node7" class="node"><title>json&#45;stream&#45;stringify</title>
<ellipse fill="none" stroke="black" cx="495.496" cy="-306" rx="85.2851" ry="18"/>
<text text-anchor="middle" x="495.496" y="-302.3" font-family="Times New Roman,serif" font-size="14.00">json&#45;stream&#45;stringify</text>
</g>
<!-- big&#45;json&#45;&gt;json&#45;stream&#45;stringify -->
<g id="edge6" class="edge"><title>big&#45;json&#45;&gt;json&#45;stream&#45;stringify</title>
<path fill="none" stroke="black" d="M435.585,-361.465C445.592,-352.367 458.43,-340.696 469.653,-330.493"/>
<polygon fill="black" stroke="black" points="472.066,-333.03 477.111,-323.714 467.357,-327.851 472.066,-333.03"/>
</g>
<!-- once -->
<g id="node8" class="node"><title>once</title>
<ellipse fill="none" stroke="black" cx="627.496" cy="-306" rx="28.6953" ry="18"/>
<text text-anchor="middle" x="627.496" y="-302.3" font-family="Times New Roman,serif" font-size="14.00">once</text>
</g>
<!-- big&#45;json&#45;&gt;once -->
<g id="edge7" class="edge"><title>big&#45;json&#45;&gt;once</title>
<path fill="none" stroke="black" d="M449.004,-366.167C455.111,-364.069 461.494,-361.925 467.496,-360 521.327,-342.73 536.464,-343.587 589.496,-324 591.589,-323.227 593.73,-322.393 595.877,-321.524"/>
<polygon fill="black" stroke="black" points="597.357,-324.699 605.197,-317.572 594.624,-318.254 597.357,-324.699"/>
</g>
<!-- through2 -->
<g id="node9" class="node"><title>through2</title>
<ellipse fill="none" stroke="black" cx="716.496" cy="-306" rx="42.7926" ry="18"/>
<text text-anchor="middle" x="716.496" y="-302.3" font-family="Times New Roman,serif" font-size="14.00">through2</text>
</g>
<!-- big&#45;json&#45;&gt;through2 -->
<g id="edge8" class="edge"><title>big&#45;json&#45;&gt;through2</title>
<path fill="none" stroke="black" d="M448.33,-365.831C454.606,-363.713 461.226,-361.647 467.496,-360 554.003,-337.274 578.852,-346.198 665.496,-324 668.66,-323.189 671.913,-322.283 675.17,-321.321"/>
<polygon fill="black" stroke="black" points="676.357,-324.617 684.873,-318.314 674.285,-317.931 676.357,-324.617"/>
</g>
<!-- from2 -->
<g id="node12" class="node"><title>from2</title>
<ellipse fill="none" stroke="black" cx="341.496" cy="-234" rx="32.4942" ry="18"/>
<text text-anchor="middle" x="341.496" y="-230.3" font-family="Times New Roman,serif" font-size="14.00">from2</text>
</g>
<!-- into&#45;stream&#45;&gt;from2 -->
<g id="edge11" class="edge"><title>into&#45;stream&#45;&gt;from2</title>
<path fill="none" stroke="black" d="M341.496,-287.697C341.496,-279.983 341.496,-270.712 341.496,-262.112"/>
<polygon fill="black" stroke="black" points="344.996,-262.104 341.496,-252.104 337.996,-262.104 344.996,-262.104"/>
</g>
<!-- p&#45;is&#45;promise -->
<g id="node15" class="node"><title>p&#45;is&#45;promise</title>
<ellipse fill="none" stroke="black" cx="448.496" cy="-234" rx="56.59" ry="18"/>
<text text-anchor="middle" x="448.496" y="-230.3" font-family="Times New Roman,serif" font-size="14.00">p&#45;is&#45;promise</text>
</g>
<!-- into&#45;stream&#45;&gt;p&#45;is&#45;promise -->
<g id="edge12" class="edge"><title>into&#45;stream&#45;&gt;p&#45;is&#45;promise</title>
<path fill="none" stroke="black" d="M364.713,-289.811C379.753,-279.972 399.553,-267.019 416.128,-256.175"/>
<polygon fill="black" stroke="black" points="418.502,-258.805 424.954,-250.401 414.67,-252.947 418.502,-258.805"/>
</g>
<!-- wrappy -->
<g id="node17" class="node"><title>wrappy</title>
<ellipse fill="none" stroke="black" cx="623.496" cy="-234" rx="38.1938" ry="18"/>
<text text-anchor="middle" x="623.496" y="-230.3" font-family="Times New Roman,serif" font-size="14.00">wrappy</text>
</g>
<!-- once&#45;&gt;wrappy -->
<g id="edge13" class="edge"><title>once&#45;&gt;wrappy</title>
<path fill="none" stroke="black" d="M626.507,-287.697C626.066,-279.983 625.537,-270.712 625.045,-262.112"/>
<polygon fill="black" stroke="black" points="628.538,-261.888 624.473,-252.104 621.55,-262.288 628.538,-261.888"/>
</g>
<!-- readable&#45;stream -->
<g id="node14" class="node"><title>readable&#45;stream</title>
<ellipse fill="none" stroke="black" cx="686.496" cy="-162" rx="67.6881" ry="18"/>
<text text-anchor="middle" x="686.496" y="-158.3" font-family="Times New Roman,serif" font-size="14.00">readable&#45;stream</text>
</g>
<!-- through2&#45;&gt;readable&#45;stream -->
<g id="edge22" class="edge"><title>through2&#45;&gt;readable&#45;stream</title>
<path fill="none" stroke="black" d="M712.877,-287.871C707.742,-263.564 698.289,-218.819 692.203,-190.013"/>
<polygon fill="black" stroke="black" points="695.619,-189.25 690.127,-180.189 688.77,-190.697 695.619,-189.25"/>
</g>
<!-- xtend -->
<g id="node22" class="node"><title>xtend</title>
<ellipse fill="none" stroke="black" cx="748.496" cy="-234" rx="30.5947" ry="18"/>
<text text-anchor="middle" x="748.496" y="-230.3" font-family="Times New Roman,serif" font-size="14.00">xtend</text>
</g>
<!-- through2&#45;&gt;xtend -->
<g id="edge23" class="edge"><title>through2&#45;&gt;xtend</title>
<path fill="none" stroke="black" d="M724.242,-288.055C727.937,-279.973 732.44,-270.121 736.559,-261.112"/>
<polygon fill="black" stroke="black" points="739.847,-262.339 740.821,-251.789 733.48,-259.429 739.847,-262.339"/>
</g>
<!-- commander -->
<g id="node10" class="node"><title>commander</title>
<ellipse fill="none" stroke="black" cx="530.496" cy="-378" rx="53.8905" ry="18"/>
<text text-anchor="middle" x="530.496" y="-374.3" font-family="Times New Roman,serif" font-size="14.00">commander</text>
</g>
<!-- core&#45;util&#45;is -->
<g id="node11" class="node"><title>core&#45;util&#45;is</title>
<ellipse fill="none" stroke="black" cx="445.496" cy="-90" rx="49.2915" ry="18"/>
<text text-anchor="middle" x="445.496" y="-86.3" font-family="Times New Roman,serif" font-size="14.00">core&#45;util&#45;is</text>
</g>
<!-- inherits -->
<g id="node13" class="node"><title>inherits</title>
<ellipse fill="none" stroke="black" cx="341.496" cy="-90" rx="36.2938" ry="18"/>
<text text-anchor="middle" x="341.496" y="-86.3" font-family="Times New Roman,serif" font-size="14.00">inherits</text>
</g>
<!-- from2&#45;&gt;inherits -->
<g id="edge9" class="edge"><title>from2&#45;&gt;inherits</title>
<path fill="none" stroke="black" d="M341.496,-215.871C341.496,-191.67 341.496,-147.211 341.496,-118.393"/>
<polygon fill="black" stroke="black" points="344.996,-118.189 341.496,-108.189 337.996,-118.189 344.996,-118.189"/>
</g>
<!-- from2&#45;&gt;readable&#45;stream -->
<g id="edge10" class="edge"><title>from2&#45;&gt;readable&#45;stream</title>
<path fill="none" stroke="black" d="M365.896,-221.853C371.284,-219.683 377.02,-217.591 382.496,-216 460.468,-193.34 552.67,-178.934 614.923,-170.951"/>
<polygon fill="black" stroke="black" points="615.55,-174.4 625.034,-169.677 614.675,-167.455 615.55,-174.4"/>
</g>
<!-- readable&#45;stream&#45;&gt;core&#45;util&#45;is -->
<g id="edge14" class="edge"><title>readable&#45;stream&#45;&gt;core&#45;util&#45;is</title>
<path fill="none" stroke="black" d="M642.573,-148.242C600.126,-135.913 536.033,-117.297 492.557,-104.669"/>
<polygon fill="black" stroke="black" points="493.372,-101.261 482.792,-101.833 491.419,-107.983 493.372,-101.261"/>
</g>
<!-- readable&#45;stream&#45;&gt;inherits -->
<g id="edge15" class="edge"><title>readable&#45;stream&#45;&gt;inherits</title>
<path fill="none" stroke="black" d="M626.521,-153.58C565.653,-145.302 469.035,-130.104 387.496,-108 384.551,-107.202 381.528,-106.293 378.508,-105.322"/>
<polygon fill="black" stroke="black" points="379.561,-101.983 368.967,-102.06 377.297,-108.607 379.561,-101.983"/>
</g>
<!-- isarray -->
<g id="node16" class="node"><title>isarray</title>
<ellipse fill="none" stroke="black" cx="547.496" cy="-90" rx="34.394" ry="18"/>
<text text-anchor="middle" x="547.496" y="-86.3" font-family="Times New Roman,serif" font-size="14.00">isarray</text>
</g>
<!-- readable&#45;stream&#45;&gt;isarray -->
<g id="edge16" class="edge"><title>readable&#45;stream&#45;&gt;isarray</title>
<path fill="none" stroke="black" d="M656.335,-145.811C634.019,-134.573 603.634,-119.271 580.639,-107.691"/>
<polygon fill="black" stroke="black" points="582.102,-104.509 571.596,-103.137 578.953,-110.761 582.102,-104.509"/>
</g>
<!-- process&#45;nextick&#45;args -->
<g id="node18" class="node"><title>process&#45;nextick&#45;args</title>
<ellipse fill="none" stroke="black" cx="686.496" cy="-90" rx="86.3847" ry="18"/>
<text text-anchor="middle" x="686.496" y="-86.3" font-family="Times New Roman,serif" font-size="14.00">process&#45;nextick&#45;args</text>
</g>
<!-- readable&#45;stream&#45;&gt;process&#45;nextick&#45;args -->
<g id="edge17" class="edge"><title>readable&#45;stream&#45;&gt;process&#45;nextick&#45;args</title>
<path fill="none" stroke="black" d="M686.496,-143.697C686.496,-135.983 686.496,-126.712 686.496,-118.112"/>
<polygon fill="black" stroke="black" points="689.996,-118.104 686.496,-108.104 682.996,-118.104 689.996,-118.104"/>
</g>
<!-- safe&#45;buffer -->
<g id="node19" class="node"><title>safe&#45;buffer</title>
<ellipse fill="none" stroke="black" cx="847.496" cy="-18" rx="50.0912" ry="18"/>
<text text-anchor="middle" x="847.496" y="-14.3" font-family="Times New Roman,serif" font-size="14.00">safe&#45;buffer</text>
</g>
<!-- readable&#45;stream&#45;&gt;safe&#45;buffer -->
<g id="edge18" class="edge"><title>readable&#45;stream&#45;&gt;safe&#45;buffer</title>
<path fill="none" stroke="black" d="M720.826,-146.248C739.955,-136.997 763.476,-123.83 781.496,-108 802.361,-89.6706 820.683,-63.7084 832.695,-44.5525"/>
<polygon fill="black" stroke="black" points="835.841,-46.1168 838.068,-35.7588 829.867,-42.4671 835.841,-46.1168"/>
</g>
<!-- string_decoder -->
<g id="node20" class="node"><title>string_decoder</title>
<ellipse fill="none" stroke="black" cx="894.496" cy="-90" rx="65.7887" ry="18"/>
<text text-anchor="middle" x="894.496" y="-86.3" font-family="Times New Roman,serif" font-size="14.00">string_decoder</text>
</g>
<!-- readable&#45;stream&#45;&gt;string_decoder -->
<g id="edge19" class="edge"><title>readable&#45;stream&#45;&gt;string_decoder</title>
<path fill="none" stroke="black" d="M726.6,-147.503C760.267,-136.173 808.519,-119.934 844.663,-107.771"/>
<polygon fill="black" stroke="black" points="846.153,-110.962 854.515,-104.455 843.921,-104.328 846.153,-110.962"/>
</g>
<!-- util&#45;deprecate -->
<g id="node21" class="node"><title>util&#45;deprecate</title>
<ellipse fill="none" stroke="black" cx="1037.5" cy="-90" rx="59.5901" ry="18"/>
<text text-anchor="middle" x="1037.5" y="-86.3" font-family="Times New Roman,serif" font-size="14.00">util&#45;deprecate</text>
</g>
<!-- readable&#45;stream&#45;&gt;util&#45;deprecate -->
<g id="edge20" class="edge"><title>readable&#45;stream&#45;&gt;util&#45;deprecate</title>
<path fill="none" stroke="black" d="M742.006,-151.616C799.209,-141.709 890.872,-125.174 969.496,-108 974.155,-106.982 978.981,-105.878 983.813,-104.737"/>
<polygon fill="black" stroke="black" points="984.787,-108.103 993.691,-102.36 983.15,-101.297 984.787,-108.103"/>
</g>
<!-- string_decoder&#45;&gt;safe&#45;buffer -->
<g id="edge21" class="edge"><title>string_decoder&#45;&gt;safe&#45;buffer</title>
<path fill="none" stroke="black" d="M883.119,-72.055C877.519,-63.7147 870.654,-53.4908 864.451,-44.2517"/>
<polygon fill="black" stroke="black" points="867.249,-42.1402 858.769,-35.789 861.437,-46.0423 867.249,-42.1402"/>
</g>
</g>
</svg>
