<?xml version="1.0" encoding="UTF-8" standalone="no"?>
<!DOCTYPE svg PUBLIC "-//W3C//DTD SVG 1.1//EN"
 "http://www.w3.org/Graphics/SVG/1.1/DTD/svg11.dtd">
<!-- Generated by graphviz version 2.38.0 (20140413.2041)
 -->
<!-- Title: G Pages: 1 -->
<svg width="376pt" height="116pt"
 viewBox="0.00 0.00 375.59 116.00" xmlns="http://www.w3.org/2000/svg" xmlns:xlink="http://www.w3.org/1999/xlink">
<g id="graph0" class="graph" transform="scale(1 1) rotate(0) translate(4 112)">
<title>G</title>
<polygon fill="white" stroke="none" points="-4,4 -4,-112 371.594,-112 371.594,4 -4,4"/>
<!-- bfj -->
<g id="node1" class="node"><title>bfj</title>
<ellipse fill="none" stroke="black" cx="206.296" cy="-90" rx="27" ry="18"/>
<text text-anchor="middle" x="206.296" y="-86.3" font-family="Times New Roman,serif" font-size="14.00">bfj</text>
</g>
<!-- bluebird -->
<g id="node2" class="node"><title>bluebird</title>
<ellipse fill="none" stroke="black" cx="40.2964" cy="-18" rx="40.0939" ry="18"/>
<text text-anchor="middle" x="40.2964" y="-14.3" font-family="Times New Roman,serif" font-size="14.00">bluebird</text>
</g>
<!-- bfj&#45;&gt;bluebird -->
<g id="edge1" class="edge"><title>bfj&#45;&gt;bluebird</title>
<path fill="none" stroke="black" d="M183.909,-79.5595C156.765,-68.1131 110.603,-48.6473 77.9508,-34.8784"/>
<polygon fill="black" stroke="black" points="79.2818,-31.6412 68.7075,-30.9806 76.5619,-38.0912 79.2818,-31.6412"/>
</g>
<!-- check&#45;types -->
<g id="node3" class="node"><title>check&#45;types</title>
<ellipse fill="none" stroke="black" cx="153.296" cy="-18" rx="54.6905" ry="18"/>
<text text-anchor="middle" x="153.296" y="-14.3" font-family="Times New Roman,serif" font-size="14.00">check&#45;types</text>
</g>
<!-- bfj&#45;&gt;check&#45;types -->
<g id="edge2" class="edge"><title>bfj&#45;&gt;check&#45;types</title>
<path fill="none" stroke="black" d="M194.534,-73.4647C188.024,-64.8665 179.774,-53.9704 172.367,-44.187"/>
<polygon fill="black" stroke="black" points="174.966,-41.8216 166.139,-35.9618 169.385,-46.0471 174.966,-41.8216"/>
</g>
<!-- hoopy -->
<g id="node4" class="node"><title>hoopy</title>
<ellipse fill="none" stroke="black" cx="260.296" cy="-18" rx="34.394" ry="18"/>
<text text-anchor="middle" x="260.296" y="-14.3" font-family="Times New Roman,serif" font-size="14.00">hoopy</text>
</g>
<!-- bfj&#45;&gt;hoopy -->
<g id="edge3" class="edge"><title>bfj&#45;&gt;hoopy</title>
<path fill="none" stroke="black" d="M218.281,-73.4647C225.175,-64.5279 233.984,-53.1086 241.754,-43.0367"/>
<polygon fill="black" stroke="black" points="244.634,-45.0328 247.971,-34.9772 239.092,-40.7572 244.634,-45.0328"/>
</g>
<!-- tryer -->
<g id="node5" class="node"><title>tryer</title>
<ellipse fill="none" stroke="black" cx="340.296" cy="-18" rx="27.0966" ry="18"/>
<text text-anchor="middle" x="340.296" y="-14.3" font-family="Times New Roman,serif" font-size="14.00">tryer</text>
</g>
<!-- bfj&#45;&gt;tryer -->
<g id="edge4" class="edge"><title>bfj&#45;&gt;tryer</title>
<path fill="none" stroke="black" d="M226.94,-78.2159C249.204,-66.5858 284.861,-47.9586 310.236,-34.7031"/>
<polygon fill="black" stroke="black" points="312.165,-37.6441 319.408,-29.9117 308.924,-31.4397 312.165,-37.6441"/>
</g>
<!-- lodash -->
<g id="node6" class="node"><title>lodash</title>
<ellipse fill="none" stroke="black" cx="285.296" cy="-90" rx="34.394" ry="18"/>
<text text-anchor="middle" x="285.296" y="-86.3" font-family="Times New Roman,serif" font-size="14.00">lodash</text>
</g>
</g>
</svg>
